<svg width="25" height="25" viewBox="0 0 25 25" fill="none" xmlns="http://www.w3.org/2000/svg">
<g clip-path="url(#clip0_226_20)">
<path d="M6.9445 12.5C6.9445 11.5972 6.38894 10.8333 5.55561 10.5555V8.1944C6.38894 7.91663 6.9445 7.15274 6.9445 6.24996C6.9445 5.0694 6.04172 4.16663 4.86117 4.16663C3.68061 4.16663 2.77783 5.0694 2.77783 6.24996C2.77783 7.15274 3.33339 7.91663 4.16672 8.1944V10.5555C3.33339 10.8333 2.77783 11.5972 2.77783 12.5C2.77783 13.4027 3.33339 14.1666 4.16672 14.4444V16.8055C3.33339 17.0833 2.77783 17.8472 2.77783 18.75C2.77783 19.9305 3.68061 20.8333 4.86117 20.8333C6.04172 20.8333 6.9445 19.9305 6.9445 18.75C6.9445 17.8472 6.38894 17.0833 5.55561 16.8055V14.4444C6.38894 14.1666 6.9445 13.4027 6.9445 12.5ZM21.5278 6.9444H10.4167C10.0001 6.9444 9.72228 6.66663 9.72228 6.24996C9.72228 5.83329 10.0001 5.55551 10.4167 5.55551H21.5278C21.9445 5.55551 22.2223 5.83329 22.2223 6.24996C22.2223 6.66663 21.9445 6.9444 21.5278 6.9444ZM21.5278 13.1944H10.4167C10.0001 13.1944 9.72228 12.9166 9.72228 12.5C9.72228 12.0833 10.0001 11.8055 10.4167 11.8055H21.5278C21.9445 11.8055 22.2223 12.0833 22.2223 12.5C22.2223 12.9166 21.9445 13.1944 21.5278 13.1944ZM21.5278 19.4444H10.4167C10.0001 19.4444 9.72228 19.1666 9.72228 18.75C9.72228 18.3333 10.0001 18.0555 10.4167 18.0555H21.5278C21.9445 18.0555 22.2223 18.3333 22.2223 18.75C22.2223 19.1666 21.9445 19.4444 21.5278 19.4444Z" fill="url(#paint0_linear_226_20)"/>
</g>
<defs>
<linearGradient id="paint0_linear_226_20" x1="2.70002" y1="12.9999" x2="22.3" y2="12.9999" gradientUnits="userSpaceOnUse">
<stop stop-color="#48409E"/>
<stop offset="1" stop-color="#5142F1"/>
</linearGradient>
<clipPath id="clip0_226_20">
<rect width="25" height="25" fill="white"/>
</clipPath>
</defs>
</svg>
